# xmcd CD database file
#
# Track frame offsets:
#	150
#	4804
#	30567
#	55395
#	86682
#	113893
#	142790
#	162818
#
# Disc length: 2379 seconds
#
# Revision: 0
# Processed by: cddbd v1.5.1PL0 Copyright (c) Steve Scherf et al.
# Submitted via: CDex 1.51
#
DISCID=5b094908
DTITLE=Kaszakö - Èdenkert
DYEAR=1983
DGENRE=Jazz
TTITLE0=Tükör
TTITLE1=Sombrero
TTITLE2=És akkor...
TTITLE3=Doctor Q
TTITLE4=Èdenkert
TTITLE5=Ùgy mint máskor
TTITLE6=Tévedés
TTITLE7=Jégesö
EXTD=YEAR: 1983
EXTT0=
EXTT1=
EXTT2=
EXTT3=
EXTT4=
EXTT5=
EXTT6=
EXTT7=
PLAYORDER=
